<?xml version="1.0" encoding="UTF-8"?>
<!DOCTYPE svg PUBLIC "-//W3C//DTD SVG 1.1//EN" "http://www.w3.org/Graphics/SVG/1.1/DTD/svg11.dtd">
<!-- Creator: CorelDRAW 2019 (64-Bit) -->
<svg xmlns="http://www.w3.org/2000/svg" xml:space="preserve" width="2000px" height="700px" version="1.1" style="shape-rendering:geometricPrecision; text-rendering:geometricPrecision; image-rendering:optimizeQuality; fill-rule:evenodd; clip-rule:evenodd"
viewBox="0 0 2000 700"
 xmlns:xlink="http://www.w3.org/1999/xlink"
 xmlns:xodm="http://www.corel.com/coreldraw/odm/2003">
 <defs>
  <style type="text/css">
   <![CDATA[
    .fil0 {fill:none}
    .fil1 {fill:#AD1457}
   ]]>
  </style>
 </defs>
 <g id="Layer_x0020_1">
  <metadata id="CorelCorpID_0Corel-Layer"/>
  <rect class="fil0" width="2000" height="700"/>
  <g id="_1445060756416">
   <path class="fil1" d="M18.42 700c-4.7,-6.59 -8.99,-13.62 -12.89,-21.08 68.53,7.85 141.42,-71.31 199.11,-135.84 39.82,-44.55 96.69,-28.79 146.83,-44.21 54.66,-16.8 56.7,-56.14 85.59,-69.91 27.69,-13.2 83.42,-0.4 125.99,-7.98 43.83,-7.81 74.82,-35.75 124.59,-31.4 52.25,4.57 101.8,50.87 150.71,52.13 75.19,1.93 94.94,9.18 188.2,55.13 21.53,10.61 46.97,8.62 77.91,25.79 31.08,17.38 57.93,49.53 89,66.91 135.97,37.93 105.86,46.44 173.8,110.46l-1348.84 0z"/>
   <path class="fil1" d="M1751.1 504.88c-221.86,-7.42 -107.87,277.93 -485.08,118.01 -29.77,-12.62 -80.19,-1.97 -116.48,-20.49 -34.82,-17.78 -55.23,-64.5 -96.8,-88.37 -68.48,-7.04 -115.02,-38.02 -142.2,-90.11 68.53,7.85 141.41,-71.31 199.1,-135.84 39.83,-44.55 96.69,-28.79 146.83,-44.21 54.66,-16.8 56.7,-56.14 85.59,-69.91 27.7,-13.2 83.42,-0.4 125.99,-7.98 43.83,-7.81 74.83,-35.76 124.59,-31.4 52.25,4.57 101.8,50.87 150.71,52.13 75.19,1.93 94.94,9.18 188.2,55.13 19.29,9.51 41.73,8.9 68.45,21.03l0 437.13 -107.63 0c-16.12,-16.98 -31.2,-37.28 -46.24,-59.37 -13.09,-19.22 -47.03,-28.57 -63.43,-49.02 -19.79,-24.69 -21.75,-60.72 -31.6,-86.73z"/>
  </g>
 </g>
</svg>
