<?xml version="1.0" encoding="UTF-8"?>
<!DOCTYPE svg PUBLIC "-//W3C//DTD SVG 1.1//EN" "http://www.w3.org/Graphics/SVG/1.1/DTD/svg11.dtd">
<!-- Creator: CorelDRAW 2019 (64-Bit) -->
<svg xmlns="http://www.w3.org/2000/svg" xml:space="preserve" width="2000px" height="700px" version="1.1" style="shape-rendering:geometricPrecision; text-rendering:geometricPrecision; image-rendering:optimizeQuality; fill-rule:evenodd; clip-rule:evenodd"
viewBox="0 0 2000 700"
 xmlns:xlink="http://www.w3.org/1999/xlink"
 xmlns:xodm="http://www.corel.com/coreldraw/odm/2003">
 <defs>
  <style type="text/css">
   <![CDATA[
    .fil0 {fill:#AD1457}
   ]]>
  </style>
 </defs>
 <g id="Layer_x0020_1">
  <metadata id="CorelCorpID_0Corel-Layer"/>
  <g id="_2327507615616">
   <path class="fil0" d="M701 0l0.84 0c1.72,0 3.44,0.01 5.16,0.02 -0.01,386.56 -313.36,699.93 -699.91,699.98l-1.03 0 -0.66 0c-1.46,0 -2.93,-0.01 -4.4,-0.02 0.01,-386.59 313.41,-699.98 700,-699.98z"/>
   <path class="fil0" d="M711 0.07c0.04,383.23 308.03,694.51 690,699.86 0,-0.28 0,-0.57 0,-0.85 -0.49,-382.84 -308.32,-693.67 -690,-699.01z"/>
   <path class="fil0" d="M2000 7.7l0 370.69c-124.53,193.45 -341.75,321.58 -588.91,321.61l-1.07 0 -0.55 0c-1.83,0 -3.65,-0.02 -5.47,-0.03 0.02,-351.25 258.74,-642.03 596,-692.27z"/>
  </g>
 </g>
</svg>
