<?xml version="1.0" encoding="UTF-8"?>
<!DOCTYPE svg PUBLIC "-//W3C//DTD SVG 1.1//EN" "http://www.w3.org/Graphics/SVG/1.1/DTD/svg11.dtd">
<!-- Creator: CorelDRAW 2019 (64-Bit) -->
<svg xmlns="http://www.w3.org/2000/svg" xml:space="preserve" width="2000px" height="700px" version="1.1" style="shape-rendering:geometricPrecision; text-rendering:geometricPrecision; image-rendering:optimizeQuality; fill-rule:evenodd; clip-rule:evenodd"
viewBox="0 0 2000 700"
 xmlns:xlink="http://www.w3.org/1999/xlink"
 xmlns:xodm="http://www.corel.com/coreldraw/odm/2003">
 <defs>
  <style type="text/css">
   <![CDATA[
    .fil0 {fill:none}
    .fil1 {fill:#AD1457}
   ]]>
  </style>
 </defs>
 <g id="Layer_x0020_1">
  <metadata id="CorelCorpID_0Corel-Layer"/>
  <rect class="fil0" width="2000" height="700"/>
  <g id="_1445055774992">
   <g>
    <path class="fil1" d="M429.33 575.83c68.7,0 124.42,55.54 124.72,124.17l-249.43 0c0.29,-68.63 56.01,-124.17 124.71,-124.17z"/>
    <path class="fil1" d="M389.47 590.9c-76.08,-121.14 -60.15,-231.42 39.86,-313.43 111.59,83.57 117.14,191.99 51.01,313.05l-90.87 0.38z"/>
    <path class="fil1" d="M323.61 651.2c-139.45,-31.86 -206.17,-121.1 -193.44,-249.81 137.99,-19.81 218.58,52.93 257.43,185.29l-63.99 64.52z"/>
    <path class="fil1" d="M6.68 700c83.51,-111.05 191.77,-116.47 312.63,-50.46l0.2 50.46 -312.83 0z"/>
    <path class="fil1" d="M538.99 660.68c120.91,-75.93 231,-60.2 312.96,39.32l-312.8 0 -0.16 -39.32z"/>
    <path class="fil1" d="M478.68 594.82c31.87,-139.44 121.1,-206.16 249.81,-193.43 19.82,137.99 -52.92,218.58 -185.29,257.43l-64.52 -64z"/>
   </g>
   <g>
    <path class="fil1" d="M1890.38 575.83c47.32,0 88.48,26.35 109.62,65.17l0 59 -234.33 0c0.29,-68.63 56.02,-124.17 124.71,-124.17z"/>
    <path class="fil1" d="M1850.52 590.9c-76.08,-121.14 -60.15,-231.42 39.86,-313.43 111.59,83.57 117.14,191.99 51.01,313.05l-90.87 0.38z"/>
    <path class="fil1" d="M1784.66 651.2c-139.45,-31.86 -206.17,-121.1 -193.44,-249.81 138,-19.81 218.58,52.93 257.43,185.29l-63.99 64.52z"/>
    <path class="fil1" d="M1467.73 700c83.51,-111.05 191.77,-116.47 312.63,-50.46l0.2 50.46 -312.83 0z"/>
    <path class="fil1" d="M1939.73 594.82c12.12,-53.03 32.54,-95.53 60.27,-127.15l0 186.93 -60.27 -59.78z"/>
   </g>
   <g>
    <path class="fil1" d="M1292.69 0c-2.36,66.81 -57.25,120.25 -124.64,120.25 -67.38,0 -122.28,-53.44 -124.64,-120.25l249.28 0z"/>
    <path class="fil1" d="M1058.4 35.39c-119.31,74.92 -228.08,60.61 -309.69,-35.39l309.54 0 0.15 35.39z"/>
    <path class="fil1" d="M1118.7 101.25c-31.86,139.45 -121.1,206.17 -249.8,193.44 -19.82,-138 52.92,-218.59 185.28,-257.44l64.52 64z"/>
    <path class="fil1" d="M1207.92 105.18c76.07,121.13 60.15,231.41 -39.86,313.42 -111.59,-83.57 -117.14,-191.99 -51.02,-313.05l90.88 -0.37z"/>
    <path class="fil1" d="M1273.78 44.87c139.45,31.87 206.17,121.1 193.43,249.81 -137.99,19.82 -218.58,-52.92 -257.43,-185.28l64 -64.53z"/>
    <path class="fil1" d="M1587.71 0c-83.1,107.24 -190.21,111.76 -309.63,46.54l-0.19 -46.54 309.82 0z"/>
   </g>
  </g>
 </g>
</svg>
