<?xml version="1.0" encoding="UTF-8"?>
<!DOCTYPE svg PUBLIC "-//W3C//DTD SVG 1.1//EN" "http://www.w3.org/Graphics/SVG/1.1/DTD/svg11.dtd">
<!-- Creator: CorelDRAW 2019 (64-Bit) -->
<svg xmlns="http://www.w3.org/2000/svg" xml:space="preserve" width="192px" height="192px" version="1.1" style="shape-rendering:geometricPrecision; text-rendering:geometricPrecision; image-rendering:optimizeQuality; fill-rule:evenodd; clip-rule:evenodd"
viewBox="0 0 192 192"
 xmlns:xlink="http://www.w3.org/1999/xlink"
 xmlns:xodm="http://www.corel.com/coreldraw/odm/2003">
 <defs>
  <style type="text/css">
   <![CDATA[
    .fil0 {fill:black}
   ]]>
  </style>
 </defs>
 <g id="Layer_x0020_1">
  <metadata id="CorelCorpID_0Corel-Layer"/>
  <path class="fil0" d="M94.11 9c30.8,0 56.78,15.3 67.24,42.41 3.11,8.09 0,18.75 0,27.94 0,39.99 -32.42,79.65 -72.42,79.65 -39.99,0 -72.41,-39.66 -72.41,-79.65 0,-1.59 -0.16,-3.43 -0.37,-5.4 -0.16,-1.47 -0.36,-3.01 -0.54,-4.55 -0.54,-4.7 -0.99,-9.51 -0.12,-12.81 5.76,-22.08 24.67,-37.6 47.58,-43.45 5.26,-1.34 11.02,0.68 16.55,0 4.32,-0.53 10.2,-4.14 14.49,-4.14z"/>
  <ellipse class="fil0" transform="matrix(1.23493 -0.180996 0.180996 1.23493 16.7611 85.3477)" rx="3.5" ry="10"/>
  <ellipse class="fil0" transform="matrix(1.23369 0.189273 -0.189273 1.23369 160.891 85.6106)" rx="3.5" ry="10"/>
  <polygon class="fil0" points="119.84,164.5 148.83,154.5 177.84,164.5 177.84,169 148.7,160.54 119.84,169 "/>
  <polygon class="fil0" points="119.84,175.5 148.83,165.49 177.84,175.5 177.84,180 148.7,171.54 119.84,180 "/>
 </g>
</svg>
