<?xml version="1.0" encoding="UTF-8"?>
<!DOCTYPE svg PUBLIC "-//W3C//DTD SVG 1.1//EN" "http://www.w3.org/Graphics/SVG/1.1/DTD/svg11.dtd">
<!-- Creator: CorelDRAW 2019 (64-Bit) -->
<svg xmlns="http://www.w3.org/2000/svg" xml:space="preserve" width="192px" height="192px" version="1.1" style="shape-rendering:geometricPrecision; text-rendering:geometricPrecision; image-rendering:optimizeQuality; fill-rule:evenodd; clip-rule:evenodd"
viewBox="0 0 192 192"
 xmlns:xlink="http://www.w3.org/1999/xlink"
 xmlns:xodm="http://www.corel.com/coreldraw/odm/2003">
 <defs>
  <style type="text/css">
   <![CDATA[
    .str0 {stroke:black;stroke-width:2;stroke-miterlimit:2.61313}
    .fil0 {fill:black}
   ]]>
  </style>
 </defs>
 <g id="Layer_x0020_1">
  <metadata id="CorelCorpID_0Corel-Layer"/>
  <path class="fil0 str0" d="M76.45 34.33c35.69,0 64.62,28.94 64.62,64.63 0,35.68 -28.93,64.61 -64.62,64.61 -35.69,0 -64.62,-28.93 -64.62,-64.61 0,-7.75 -4.59,-14.79 -2.09,-21.67 9.01,-24.83 38.77,-42.96 66.71,-42.96z"/>
  <path class="fil0 str0" d="M77.93 91.76l68.19 0c0,-34.56 -30.53,-62.57 -68.19,-62.57 -37.66,0 -68.19,28.01 -68.19,62.57l68.19 0z"/>
  <path class="fil0" d="M144.67 91.76c0,-2.25 0.35,-6.26 0.1,-8.45 19.59,0 25.88,-2.88 39.23,10.56l-47.3 0c-0.22,-0.71 -0.46,-1.41 -0.71,-2.11l8.68 0z"/>
 </g>
</svg>
