<?xml version="1.0" encoding="UTF-8"?>
<!DOCTYPE svg PUBLIC "-//W3C//DTD SVG 1.1//EN" "http://www.w3.org/Graphics/SVG/1.1/DTD/svg11.dtd">
<!-- Creator: CorelDRAW 2019 (64-Bit) -->
<svg xmlns="http://www.w3.org/2000/svg" xml:space="preserve" width="192px" height="192px" version="1.1" style="shape-rendering:geometricPrecision; text-rendering:geometricPrecision; image-rendering:optimizeQuality; fill-rule:evenodd; clip-rule:evenodd"
viewBox="0 0 192 192"
 xmlns:xlink="http://www.w3.org/1999/xlink"
 xmlns:xodm="http://www.corel.com/coreldraw/odm/2003">
 <defs>
  <style type="text/css">
   <![CDATA[
    .fil0 {fill:black}
    .fil1 {fill:black;fill-rule:nonzero}
   ]]>
  </style>
 </defs>
 <g id="Layer_x0020_1">
  <metadata id="CorelCorpID_0Corel-Layer"/>
  <path class="fil0" d="M109.18 48c-28.76,0 -53,14.28 -62.76,39.59 -2.91,7.54 0,17.49 0,26.07 0,37.32 30.26,74.34 67.58,74.34 37.33,0 67.59,-37.02 67.59,-74.34 0,-1.48 0.15,-3.2 0.35,-5.04 0.15,-1.37 0.33,-2.81 0.49,-4.25 0.51,-4.39 0.93,-8.87 0.12,-11.96 -5.37,-20.6 -23.02,-35.09 -44.41,-40.55 -4.91,-1.25 -10.29,0.63 -15.45,0 -4.03,-0.49 -9.52,-3.86 -13.51,-3.86z"/>
  <ellipse class="fil0" transform="matrix(-1.15258 -0.168929 -0.168927 1.1526 181.362 119.258)" rx="3.5" ry="10"/>
  <ellipse class="fil0" transform="matrix(-1.15142 0.176654 0.176651 1.15144 46.8434 119.503)" rx="3.5" ry="10"/>
  <path class="fil1" d="M44.57 50.28c-0.33,-0.82 -0.57,-1.44 -0.72,-1.86 -0.9,-2.47 -1.32,-4.71 -1.27,-6.75 0.02,-1.54 0.35,-3.2 0.99,-4.98 0.47,-1.3 1.46,-3.3 2.93,-6.01 1.48,-2.71 2.33,-4.74 2.57,-6.12 0.24,-1.39 0.11,-2.75 -0.38,-4.1 -0.9,-2.46 -2.63,-4.26 -5.21,-5.43 -2.58,-1.16 -5.25,-1.25 -8.01,-0.24 -2.68,0.97 -4.59,2.62 -5.77,4.95 -1.18,2.34 -1.4,5.4 -0.65,9.18l-6.72 1.55c-1.15,-4.98 -0.76,-9.27 1.18,-12.85 1.95,-3.57 5.27,-6.22 9.99,-7.93 4.98,-1.82 9.45,-1.9 13.42,-0.26 3.95,1.65 6.64,4.41 8.04,8.28 0.81,2.23 1.04,4.48 0.67,6.74 -0.36,2.28 -1.57,5.3 -3.64,9.11 -1.39,2.56 -2.24,4.37 -2.56,5.46 -0.32,1.09 -0.42,2.24 -0.31,3.47 0.1,1.21 0.58,3.09 1.44,5.62l-5.99 2.17zm3.42 12.99l-2.6 -7.14 7.15 -2.6 2.59 7.14 -7.14 2.6z"/>
 </g>
</svg>
