<?xml version="1.0" encoding="UTF-8"?>
<!DOCTYPE svg PUBLIC "-//W3C//DTD SVG 1.1//EN" "http://www.w3.org/Graphics/SVG/1.1/DTD/svg11.dtd">
<!-- Creator: CorelDRAW 2019 (64-Bit) -->
<svg xmlns="http://www.w3.org/2000/svg" xml:space="preserve" width="192px" height="192px" version="1.1" style="shape-rendering:geometricPrecision; text-rendering:geometricPrecision; image-rendering:optimizeQuality; fill-rule:evenodd; clip-rule:evenodd"
viewBox="0 0 192 192"
 xmlns:xlink="http://www.w3.org/1999/xlink"
 xmlns:xodm="http://www.corel.com/coreldraw/odm/2003">
 <defs>
  <style type="text/css">
   <![CDATA[
    .fil0 {fill:black}
    .fil1 {fill:black;fill-rule:nonzero}
   ]]>
  </style>
 </defs>
 <g id="Layer_x0020_1">
  <metadata id="CorelCorpID_0Corel-Layer"/>
  <path class="fil0" d="M103.83 48c28.76,0 53,14.28 62.76,39.59 2.91,7.54 0,17.49 0,26.07 0,37.32 -30.26,74.34 -67.59,74.34 -37.32,0 -67.58,-37.02 -67.58,-74.34 0,-1.48 -0.15,-3.2 -0.35,-5.04 -0.15,-1.37 -0.33,-2.81 -0.5,-4.25 -0.51,-4.39 -0.92,-8.87 -0.12,-11.96 5.38,-20.6 23.03,-35.09 44.42,-40.55 4.9,-1.25 10.28,0.63 15.44,0 4.03,-0.49 9.53,-3.86 13.52,-3.86z"/>
  <ellipse class="fil0" transform="matrix(1.1526 -0.168929 0.168929 1.1526 31.6436 119.258)" rx="3.5" ry="10"/>
  <ellipse class="fil0" transform="matrix(1.15144 0.176654 -0.176654 1.15144 166.165 119.503)" rx="3.5" ry="10"/>
  <path class="fil1" d="M154.96 45.3c0.3,-0.83 0.53,-1.45 0.7,-1.87 0.96,-2.44 2.13,-4.41 3.53,-5.9 1.03,-1.13 2.38,-2.15 4.04,-3.07 1.22,-0.67 3.27,-1.52 6.16,-2.56 2.91,-1.05 4.9,-2.02 5.99,-2.89 1.08,-0.87 1.9,-1.98 2.42,-3.31 0.95,-2.41 0.84,-4.91 -0.33,-7.47 -1.16,-2.58 -3.11,-4.41 -5.84,-5.48 -2.65,-1.05 -5.18,-1.09 -7.61,-0.13 -2.42,0.96 -4.59,3.08 -6.53,6.38l-6.09 -3.27c2.44,-4.48 5.56,-7.42 9.39,-8.81 3.83,-1.38 8.09,-1.16 12.75,0.68 4.94,1.95 8.35,4.85 10.24,8.7 1.88,3.85 2.07,7.68 0.56,11.5 -0.87,2.22 -2.19,4.05 -3.96,5.5 -1.77,1.44 -4.68,2.92 -8.76,4.39 -2.72,1.01 -4.56,1.8 -5.53,2.4 -0.95,0.62 -1.79,1.41 -2.53,2.4 -0.73,0.98 -1.61,2.7 -2.64,5.17l-5.96 -2.36zm-5.29 12.3l2.78 -7.07 7.07 2.79 -2.77 7.07 -7.08 -2.79z"/>
 </g>
</svg>
